<svg width="800px" height="800px" viewBox="0 0 16 16" fill="none" xmlns="http://www.w3.org/2000/svg">
<path d="M8 0C3.58 0 0 3.13 0 7c0 3.08 2.56 5.68 6.04 6.56-.08.72-.28 2.18-.32 2.52-.06.52.18.51.38.37.16-.11 2.22-1.51 3.12-2.12.6.08 1.2.12 1.8.12 4.42 0 8-3.13 8-7S12.42 0 8 0z" fill="#06C755"/>
<path d="M5.6 6.3c-.36 0-.65.29-.65.65s.29.65.65.65.65-.29.65-.65-.29-.65-.65-.65zm4.8 0c-.36 0-.65.29-.65.65s.29.65.65.65.65-.29.65-.65-.29-.65-.65-.65zM8 11.5c-1.52 0-2.75-.82-2.75-1.83h1.2c0 .34.72.61 1.55.61s1.55-.27 1.55-.61h1.2c0 1.01-1.23 1.83-2.75 1.83z" fill="white"/>
</svg>
